<?xml version="1.0" standalone="yes"?>
<svg width="112" height="108">
<path style="fill:#2A2D3E; stroke:none;" d="M0 0L0 108L112 108L112 0L0 0z"/>
<path style="fill:#8f2828; stroke:none;" d="M4 78C4.05516 93.6067 31.3958 92.9134 37.5432 80.9846C46.9046 62.8192 22.0512 59.5316 14.4375 49.8951C7.90482 41.6268 20.2979 36.5469 27 37.6335C30.395 38.1839 33.6127 39.4261 37 40L37 32C24.5574 29.69 -5.18159 32.6966 6.13966 52.9853C11.0892 61.8554 23.6423 62.1636 29.2569 70.1852C33.098 75.6728 28.517 80.959 22.9992 82.2762C16.3929 83.8533 10.1264 79.7514 4 78M66 77L90 77L90 88L102 88L102 77L109 77L109 67L102 67L102 32C98.4697 32 92.6737 30.9081 89.6373 33.0278C86.2304 35.4061 84.263 41.5564 81.9969 45C74.7497 56.0131 66 63.2956 66 77z"/>
<path style="fill:#2A2D3E; stroke:none;" d="M89 51L79 67L90 67L89 51z"/>
</svg>
