<?xml version="1.0" standalone="yes"?>
<svg width="108" height="108">
<path style="fill:#2A2D3E; stroke:none;" d="M0 0L0 108L108 108L108 0L0 0z"/>
<path style="fill:#64FFDA; stroke:none;" d="M4 78C4.05516 93.6067 31.3958 92.9134 37.5432 80.9846C46.9046 62.8192 22.0512 59.5316 14.4375 49.8951C7.90482 41.6268 20.2979 36.5469 27 37.6335C30.395 38.1839 33.6127 39.4261 37 40L37 32C24.5574 29.69 -5.18159 32.6966 6.13966 52.9853C11.0892 61.8554 23.6423 62.1636 29.2569 70.1852C33.098 75.6728 28.517 80.959 22.9992 82.2762C16.3929 83.8533 10.1264 79.7514 4 78M73 32L72 60C77.5508 60 83.9891 59.1577 88.9846 62.0895C97.6176 67.1562 95.9443 78.3647 86.9992 81.9907C81.5076 84.2169 76.2699 81.4379 71 80L71 88C78.2733 89.3503 88.5053 90.7165 94.9846 86.2971C104.622 79.7238 106.042 63.5742 95.9846 56.7029C91.0089 53.3037 84.7168 54 79 54L80 38L100 38L100 32L73 32z"/>
</svg>
