<?xml version="1.0" standalone="yes"?>
<svg width="112" height="108">
<path style="fill:#2A2D3E; stroke:none;" d="M0 0L0 108L112 108L112 0L0 0z"/>
<path style="fill:#e1da0f; stroke:none;" d="M4 78C4.05516 93.6067 31.3958 92.9134 37.5432 80.9846C46.9046 62.8192 22.0512 59.5316 14.4375 49.8951C7.90482 41.6268 20.2979 36.5469 27 37.6335C30.395 38.1839 33.6127 39.4261 37 40L37 32C24.5574 29.69 -5.18159 32.6966 6.13966 52.9853C11.0892 61.8554 23.6423 62.1636 29.2569 70.1852C33.098 75.6728 28.517 80.959 22.9992 82.2762C16.3929 83.8533 10.1264 79.7514 4 78M81 56C84.1191 42.8744 91.959 40.2476 104 43C104 40.1186 104.911 35.1385 102.972 32.7423C99.1266 27.9892 85.228 31.3703 81 33.9946C72.3375 39.3714 68.7733 49.2434 68.0895 59C67.4595 67.9888 68.5598 79.3642 76.0941 85.4421C86.6078 93.9234 104.442 88.1015 107.471 75C111.361 58.1689 95.7852 44.7299 81 56z"/>
<path style="fill:#2A2D3E; stroke:none;" d="M85.1335 63.0285C77.4442 67.3944 83.5743 82.6405 91.7716 77.8164C98.8459 73.6531 94.1646 57.9009 85.1335 63.0285z"/>
</svg>
