<?xml version="1.0" standalone="yes"?>
<svg width="112" height="108">
<path style="fill:#2A2D3E; stroke:none;" d="M0 0L0 108L112 108L112 0L0 0z"/>
<path style="fill:#0e1224; stroke:none;" d="M4 78C4.05492 93.5392 31.3892 92.9933 37.4275 80.9599C46.7746 62.3323 20.5295 59.8526 13.7577 48.9568C8.64745 40.7343 20.9338 36.6898 27 37.6304C30.3861 38.1554 33.6664 39.2376 37 40L37 32C24.7755 29.7305 -3.79765 31.9653 5.76852 51.9961C10.2998 61.4843 22.3154 61.6376 28.5664 69.1852C33.5567 75.2106 28.6837 81.4901 22 82.4923C15.5413 83.4607 9.94226 79.7112 4 78M68 32L68 42L94 42C84.8056 54.6559 76.6817 72.1637 76 88C79.3351 88 85.4943 89.1688 88.2616 86.9722C91.4894 84.41 91.7416 75.8254 93.0008 72C97.2698 59.0304 107.877 45.7006 108 32L68 32z"/>
</svg>
