<?xml version="1.0" standalone="yes"?>
<svg width="112" height="108">
<path style="fill:#2A2D3E; stroke:none;" d="M0 0L0 108L112 108L112 0L0 0z"/>
<path style="fill:#e6780a; stroke:none;" d="M4 78C4.05516 93.6067 31.3958 92.9134 37.5432 80.9846C46.9046 62.8192 22.0512 59.5316 14.4375 49.8951C7.90482 41.6268 20.2979 36.5469 27 37.6335C30.395 38.1839 33.6127 39.4261 37 40L37 32C24.5574 29.69 -5.18159 32.6966 6.13966 52.9853C11.0892 61.8554 23.6423 62.1636 29.2569 70.1852C33.098 75.6728 28.517 80.959 22.9992 82.2762C16.3929 83.8533 10.1264 79.7514 4 78M77 58C54.3702 73.5957 78.1978 97.5292 98.9961 87C110.664 81.093 110.909 63.4255 98 59C100.657 56.6228 103.585 54.3746 104.991 50.9853C116.537 23.1383 57.2431 25.7796 70.6883 51.9846C72.1744 54.8811 74.228 56.4921 77 58z"/>
<path style="fill:#2A2D3E; stroke:none;" d="M86.0548 40.8511C78.8695 42.9563 81.5519 55.262 88.9815 53.1489C96.6712 50.9619 93.6576 38.6235 86.0548 40.8511M85.0193 64.7577C76.0466 68.0464 80.7879 82.6116 89.9807 79.2423C98.9534 75.9536 94.212 61.3884 85.0193 64.7577z"/>
</svg>
