<?xml version="1.0" standalone="yes"?>
<svg width="112" height="108">
<path style="fill:#2A2D3E; stroke:none;" d="M0 0L0 108L112 108L112 0L0 0z"/>
<path style="fill:#A5D51C; stroke:none;" d="M4 78C4.05516 93.6067 31.3958 92.9134 37.5432 80.9846C46.9046 62.8192 22.0512 59.5316 14.4375 49.8951C7.90482 41.6268 20.2979 36.5469 27 37.6335C30.395 38.1839 33.6127 39.4261 37 40L37 32C24.5574 29.69 -5.18159 32.6966 6.13966 52.9853C11.0892 61.8554 23.6423 62.1636 29.2569 70.1852C33.098 75.6728 28.517 80.959 22.9992 82.2762C16.3929 83.8533 10.1264 79.7514 4 78M72 39L72 50L84 47L84 88L97 88L97 31L72 39z"/>
</svg>
