<?xml version="1.0" standalone="yes"?>
<svg width="112" height="108">
<path style="fill:#2A2D3E; stroke:none;" d="M0 0L0 108L112 108L112 0L0 0z"/>
<path style="fill:#e58e8e; stroke:none;" d="M4 78C4.05516 93.6067 31.3958 92.9134 37.5432 80.9846C46.9046 62.8192 22.0512 59.5316 14.4375 49.8951C7.90482 41.6268 20.2979 36.5469 27 37.6335C30.395 38.1839 33.6127 39.4261 37 40L37 32C24.5574 29.69 -5.18159 32.6966 6.13966 52.9853C11.0892 61.8554 23.6423 62.1636 29.2569 70.1852C33.098 75.6728 28.517 80.959 22.9992 82.2762C16.3929 83.8533 10.1264 79.7514 4 78M70 47C75.0613 44.9028 98.2737 36.2799 90.5394 51.9961C87.251 58.6781 79.218 61.987 74.1852 67.1705C68.6716 72.8492 67.0634 80.3419 67 88L105 88L105 77L82 77C88.3119 69.077 100.011 64.8088 103.852 55C109.685 40.1004 98.9787 30.8376 85 31.0039C80.6102 31.0561 73.8322 31.6413 71.0278 35.6381C69.0355 38.4774 70 43.7044 70 47z"/>
</svg>
