<?xml version="1.0" standalone="yes"?>
<svg width="112" height="108">
<path style="fill:#2A2D3E; stroke:none;" d="M0 0L0 108L112 108L112 0L0 0z"/>
<path style="fill:#886ad1; stroke:none;" d="M4 78C4.05516 93.6067 31.3958 92.9134 37.5432 80.9846C46.9046 62.8192 22.0512 59.5316 14.4375 49.8951C7.90482 41.6268 20.2979 36.5469 27 37.6335C30.395 38.1839 33.6127 39.4261 37 40L37 32C24.5574 29.69 -5.18159 32.6966 6.13966 52.9853C11.0892 61.8554 23.6423 62.1636 29.2569 70.1852C33.098 75.6728 28.517 80.959 22.9992 82.2762C16.3929 83.8533 10.1264 79.7514 4 78M71 44C75.0932 42.8832 79.6431 40.3395 83.9846 41.4483C89.176 42.7742 91.2327 48.7441 86.7708 52.2724C83.2997 55.0172 78.1887 54.9653 74 55L74 65C78.8354 65.0005 84.7591 64.4026 88.7677 67.7029C93.9343 71.9565 89.2783 77.8658 83.9992 78.7677C78.564 79.6963 73.8924 76.7501 69 75C69 78.192 67.9903 83.6003 70.0278 86.2971C75.8807 94.0438 97.6629 88.5555 102.297 81.9568C107.869 74.0225 104.861 61.9953 95 60C97.7223 57.1213 101.085 54.9682 102.347 50.9961C106.684 37.3494 95.8607 30.9481 84 31.0008C80.5275 31.0162 74.4463 30.6199 72.0278 33.7276C70.1104 36.1914 71 41.0696 71 44z"/>
</svg>
